<svg xmlns="http://www.w3.org/2000/svg" width="82" height="64" fill="#385040"><path d="M37.988 45.241V64h-3.941V51.547H1.417l2.522-3.941h18.286l-3.783-4.571-3.783-4.571L4.412 24.906h5.202l16.867 22.7h7.566l-24.433-32h5.675l22.7 29.636zm5.203.061V64h3.941V51.587h32.63l-2.522-3.928H58.955l3.783-4.556 3.783-4.557 10.246-13.513h-5.202L54.699 47.659h-7.567l24.433-31.896H65.89L43.191 45.302zm-2.679-5.735l-24.118-32h5.36l18.759 25.852 3.783-5.675L25.379 2.522h5.675l9.458 12.926 3.153-3.783 3.153-4.099 4.099-5.044h4.729l-12.77 16.394 3.941 5.044L59.113 7.567h6.148l-24.749 32z"/></svg>
